<svg width="105" height="56" viewBox="0 0 105 56" fill="none" xmlns="http://www.w3.org/2000/svg">
<path d="M84.5366 21.8957C84.6141 20.1131 84.8079 18.0721 85.1179 15.7727C85.3246 14.4034 85.4796 13.0729 85.583 11.7811C85.6088 11.4969 85.6217 11.0577 85.6217 10.4635C85.6217 9.61092 85.5701 8.48707 85.4667 7.09195C85.3634 5.85184 85.3117 4.98635 85.3117 4.49547C85.3117 3.07451 85.5959 2.00234 86.1643 1.27894C86.7585 0.555545 87.8694 0.193848 89.4971 0.193848C90.763 0.193848 91.7189 0.413449 92.3648 0.852653C93.0107 1.26602 93.437 1.86024 93.6437 2.63531C93.8762 3.38454 93.9925 4.3663 93.9925 5.58057C93.9925 6.35563 93.9796 6.94985 93.9537 7.36322L93.915 9.57217C93.915 10.0114 93.9408 10.7477 93.9925 11.7811L94.1087 13.9901C94.1346 15.0751 94.1862 15.9148 94.2637 16.509C94.3412 17.0774 94.4833 17.4133 94.69 17.5166C94.7934 17.5683 95.013 17.3616 95.3488 16.8966C95.6847 16.4315 96.0722 16.0311 96.5114 15.6952C96.9765 15.3593 97.5578 15.1914 98.2553 15.1914C99.4696 15.1914 100.387 15.734 101.007 16.819C101.627 17.8783 101.937 19.183 101.937 20.7331C101.937 21.7149 101.808 22.645 101.549 23.5234C101.317 24.4018 100.981 25.0994 100.542 25.6161C99.8959 26.3911 99.1079 26.8949 98.1778 27.1275C97.2478 27.36 95.9172 27.4762 94.1862 27.4762L89.5746 27.4375H89.3421C87.5336 27.4375 86.2547 26.9079 85.5055 25.8486C84.7821 24.7893 84.4591 23.4717 84.5366 21.8957ZM86.6293 5.69683C86.6552 5.87768 86.7068 6.03269 86.7843 6.16187C86.8877 6.26521 87.0039 6.31688 87.1331 6.31688C87.2623 6.31688 87.3656 6.23938 87.4431 6.08436C87.5206 5.90351 87.5336 5.67099 87.4819 5.3868C87.2752 4.27587 87.1719 3.47497 87.1719 2.98409C87.1719 2.49321 87.2752 2.14443 87.4819 1.93775C87.7144 1.73106 88.089 1.62772 88.6057 1.62772C88.7349 1.62772 89.0837 1.65356 89.6521 1.70523C89.7554 1.73106 89.8975 1.74398 90.0784 1.74398C90.3109 1.74398 90.4917 1.71815 90.6209 1.66647C90.7759 1.58897 90.8534 1.51146 90.8534 1.43395C90.8534 1.33061 90.7372 1.24019 90.5047 1.16268C90.2721 1.05934 89.9621 1.00767 89.5746 1.00767C88.4637 1.00767 87.6757 1.21435 87.2106 1.62772C86.7456 2.04109 86.5131 2.82908 86.5131 3.99168C86.5131 4.45672 86.5518 5.0251 86.6293 5.69683ZM97.7128 16.2377C97.2478 16.3411 96.8602 16.5349 96.5502 16.819C96.2402 17.1032 95.9689 17.3874 95.7364 17.6716C95.5297 17.9558 95.3876 18.1496 95.3101 18.2529C95.1809 18.4338 95.1163 18.5888 95.1163 18.718C95.1163 18.8471 95.168 18.9117 95.2713 18.9117C95.4005 18.9117 95.5297 18.8084 95.6589 18.6017C96.0206 18.085 96.3306 17.7233 96.5889 17.5166C96.8731 17.2841 97.2994 17.1032 97.8678 16.9741C97.997 16.9482 98.1003 16.8966 98.1778 16.819C98.2553 16.7415 98.2941 16.6511 98.2941 16.5478C98.2941 16.4444 98.2424 16.3669 98.1391 16.3153C98.0357 16.2377 97.8936 16.2119 97.7128 16.2377Z" fill="#26434C"/>
<path d="M65.9546 21.8957C66.0321 20.1131 66.2259 18.0721 66.5359 15.7727C66.7426 14.4034 66.8976 13.0729 67.001 11.7811C67.0268 11.4969 67.0397 11.0577 67.0397 10.4635C67.0397 9.61092 66.988 8.48707 66.8847 7.09195C66.7813 5.85184 66.7297 4.98635 66.7297 4.49547C66.7297 3.07451 67.0139 2.00234 67.5823 1.27894C68.1765 0.555545 69.2874 0.193848 70.915 0.193848C72.181 0.193848 73.1369 0.413449 73.7828 0.852653C74.4287 1.26602 74.855 1.86024 75.0617 2.63531C75.2942 3.38454 75.4104 4.3663 75.4104 5.58057C75.4104 6.35563 75.3975 6.94985 75.3717 7.36322L75.3329 9.57217C75.3329 10.0114 75.3588 10.7477 75.4104 11.7811L75.5267 13.9901C75.5525 15.0751 75.6042 15.9148 75.6817 16.509C75.7592 17.0774 75.9013 17.4133 76.108 17.5166C76.2113 17.5683 76.4309 17.3616 76.7668 16.8966C77.1027 16.4315 77.4902 16.0311 77.9294 15.6952C78.3944 15.3593 78.9757 15.1914 79.6733 15.1914C80.8876 15.1914 81.8047 15.734 82.4248 16.819C83.0449 17.8783 83.3549 19.183 83.3549 20.7331C83.3549 21.7149 83.2257 22.645 82.9673 23.5234C82.7348 24.4018 82.399 25.0994 81.9598 25.6161C81.3139 26.3911 80.5259 26.8949 79.5958 27.1275C78.6657 27.36 77.3352 27.4762 75.6042 27.4762L70.9926 27.4375H70.76C68.9515 27.4375 67.6727 26.9079 66.9234 25.8486C66.2 24.7893 65.8771 23.4717 65.9546 21.8957ZM68.0473 5.69683C68.0731 5.87768 68.1248 6.03269 68.2023 6.16187C68.3056 6.26521 68.4219 6.31688 68.5511 6.31688C68.6803 6.31688 68.7836 6.23938 68.8611 6.08436C68.9386 5.90351 68.9515 5.67099 68.8999 5.3868C68.6932 4.27587 68.5898 3.47497 68.5898 2.98409C68.5898 2.49321 68.6932 2.14443 68.8999 1.93775C69.1324 1.73106 69.507 1.62772 70.0237 1.62772C70.1529 1.62772 70.5017 1.65356 71.0701 1.70523C71.1734 1.73106 71.3155 1.74398 71.4963 1.74398C71.7289 1.74398 71.9097 1.71815 72.0389 1.66647C72.1939 1.58897 72.2714 1.51146 72.2714 1.43395C72.2714 1.33061 72.1551 1.24019 71.9226 1.16268C71.6901 1.05934 71.3801 1.00767 70.9926 1.00767C69.8816 1.00767 69.0936 1.21435 68.6286 1.62772C68.1635 2.04109 67.931 2.82908 67.931 3.99168C67.931 4.45672 67.9698 5.0251 68.0473 5.69683ZM79.1308 16.2377C78.6657 16.3411 78.2782 16.5349 77.9682 16.819C77.6581 17.1032 77.3869 17.3874 77.1543 17.6716C76.9477 17.9558 76.8056 18.1496 76.7281 18.2529C76.5989 18.4338 76.5343 18.5888 76.5343 18.718C76.5343 18.8471 76.586 18.9117 76.6893 18.9117C76.8185 18.9117 76.9477 18.8084 77.0768 18.6017C77.4385 18.085 77.7486 17.7233 78.0069 17.5166C78.2911 17.2841 78.7174 17.1032 79.2858 16.9741C79.415 16.9482 79.5183 16.8966 79.5958 16.819C79.6733 16.7415 79.7121 16.6511 79.7121 16.5478C79.7121 16.4444 79.6604 16.3669 79.557 16.3153C79.4537 16.2377 79.3116 16.2119 79.1308 16.2377Z" fill="#26434C"/>
<path d="M47.9786 21.8957C48.0303 20.0097 48.2112 17.8008 48.5212 15.2689C48.6504 14.2613 48.7795 13.0987 48.9087 11.7811C48.9345 11.5486 48.9475 11.1998 48.9475 10.7348C48.9475 10.0114 48.87 8.92628 48.7149 7.47948C48.6891 7.19529 48.6504 6.74317 48.5987 6.12312C48.547 5.47722 48.5212 4.93468 48.5212 4.49547C48.5212 3.10035 48.7795 2.04109 49.2962 1.31769C49.8388 0.568462 50.8335 0.193848 52.2803 0.193848H58.3645C59.9663 0.219683 61.0902 0.400531 61.7361 0.736394C62.4078 1.04642 62.7437 1.73106 62.7437 2.79032C62.7437 3.59123 62.692 4.2242 62.5887 4.68924C62.4853 5.15428 62.2528 5.5289 61.8911 5.81309C61.5552 6.09728 61.0256 6.23937 60.3022 6.23937L56.5819 6.27813C56.401 6.27813 56.2331 6.36855 56.0781 6.5494C55.9489 6.70441 55.8843 6.88526 55.8843 7.09195C55.8843 7.47948 56.1298 7.67325 56.6206 7.67325L59.2946 7.6345C60.173 7.6345 60.7931 7.69909 61.1548 7.82826C61.5165 7.95744 61.7619 8.22871 61.8911 8.64209C62.0203 9.02962 62.1107 9.71426 62.1624 10.696C62.1882 11.5486 62.0849 12.2074 61.8523 12.6724C61.6457 13.1375 61.3356 13.4863 60.9223 13.7188C60.5089 13.9513 59.863 14.2226 58.9846 14.5326C58.0028 14.8685 57.2407 15.1656 56.6981 15.4239C56.2848 15.6306 56.0781 15.9277 56.0781 16.3153C56.0781 16.4961 56.1427 16.664 56.2719 16.819C56.4269 16.9482 56.6465 17.0128 56.9307 17.0128C57.2149 17.0128 57.512 16.9482 57.822 16.819C58.132 16.664 58.5066 16.4315 58.9458 16.1215C58.9975 16.0698 59.23 15.9277 59.6434 15.6952C60.0568 15.4368 60.4572 15.2689 60.8448 15.1914C60.9481 15.1656 61.1031 15.1527 61.3098 15.1527C62.3949 15.1527 63.2345 15.721 63.8288 16.8578C64.4488 17.9687 64.7589 19.2863 64.7589 20.8106C64.7589 21.7666 64.6297 22.6837 64.3713 23.5621C64.113 24.4147 63.7383 25.0994 63.2475 25.6161C62.5241 26.3911 61.7103 26.8949 60.806 27.1275C59.9276 27.36 58.6487 27.4762 56.9694 27.4762L53.0941 27.4375H52.8616C51.0531 27.4375 49.7742 26.9079 49.025 25.8486C48.2757 24.7893 47.927 23.4717 47.9786 21.8957ZM49.49 5.50306C49.49 5.68391 49.5288 5.83892 49.6063 5.9681C49.7096 6.07144 49.813 6.12312 49.9163 6.12312C50.0713 6.12312 50.1876 6.04561 50.2651 5.89059C50.3684 5.70974 50.3943 5.47723 50.3426 5.19303C50.1876 4.34046 50.1101 3.66873 50.1101 3.17786C50.1101 2.63531 50.2134 2.26069 50.4201 2.05401C50.6526 1.84732 51.0402 1.74398 51.5827 1.74398C51.9702 1.74398 52.642 1.80857 53.5979 1.93775L53.9467 1.9765C54.2308 1.9765 54.4375 1.93775 54.5667 1.86024C54.7217 1.78273 54.7992 1.67939 54.7992 1.55021C54.7992 1.42104 54.7088 1.30478 54.528 1.20143C54.3471 1.09809 54.0887 1.04642 53.7529 1.04642C52.3319 1.04642 51.3243 1.16268 50.7301 1.3952C50.1617 1.62772 49.813 2.01525 49.6838 2.5578C49.5546 3.10035 49.49 4.0821 49.49 5.50306ZM63.945 20.1518C63.945 19.2476 63.7383 18.3821 63.325 17.5554C62.9116 16.7286 62.3303 16.3153 61.5811 16.3153C61.1935 16.3153 60.806 16.4186 60.4185 16.6253C60.1084 16.7803 59.9534 16.9611 59.9534 17.1678C59.9534 17.297 60.0439 17.3616 60.2247 17.3616C60.4314 17.3616 60.651 17.297 60.8835 17.1678C61.1677 16.987 61.4648 16.8966 61.7748 16.8966C62.3691 16.8966 62.8083 17.2841 63.0925 18.0592C63.3766 18.8084 63.48 19.5835 63.4025 20.3844V20.5394C63.4025 20.6944 63.4283 20.8365 63.48 20.9657C63.5317 21.069 63.5833 21.1207 63.635 21.1207C63.7125 21.1207 63.7771 21.0432 63.8288 20.8882C63.9063 20.7073 63.945 20.4619 63.945 20.1518Z" fill="#26434C"/>
<path d="M23.1144 5.73558C23.0369 4.13377 23.3728 2.81616 24.122 1.78273C24.8712 0.723476 26.2147 0.193848 28.1524 0.193848C30.09 0.193848 31.4593 0.762229 32.2602 1.89899C33.0611 3.03576 33.4357 4.4438 33.3841 6.12312C33.3582 7.38906 33.2807 8.59041 33.1515 9.72718C33.0224 10.8639 32.8415 12.2074 32.609 13.7575C32.4023 15.2818 32.3377 16.044 32.4152 16.044C32.6219 16.0698 32.9578 15.3593 33.4228 13.9125C33.8362 12.7499 34.172 11.9232 34.4304 11.4323C34.7146 10.9156 35.0246 10.6573 35.3605 10.6573C35.8514 10.6573 36.2647 10.9544 36.6006 11.5486C36.9623 12.117 37.3886 13.0341 37.8795 14.3001C37.9311 14.4293 38.0603 14.8297 38.267 15.5014C38.4737 16.1473 38.6416 16.4574 38.7708 16.4315C38.8483 16.4315 38.7449 15.7598 38.4608 14.4163C38.0991 12.5045 37.8149 10.9544 37.6082 9.76593C37.4273 8.5775 37.3111 7.29863 37.2594 5.92935C37.1819 4.37921 37.5953 3.03576 38.4995 1.89899C39.4038 0.762229 40.8118 0.193848 42.7236 0.193848C44.3513 0.193848 45.5139 0.775148 46.2114 1.93775C46.909 3.07452 47.2319 4.46964 47.1803 6.12312C47.1544 7.36322 47.0769 8.46124 46.9478 9.41715C46.8186 10.3472 46.6377 11.4452 46.4052 12.7112C46.0693 14.8297 45.9014 15.876 45.9014 15.8502C45.7981 16.4961 45.7464 17.1937 45.7464 17.9429C45.7464 18.7696 45.8239 19.8289 45.9789 21.1207C46.1339 22.3866 46.1985 23.2521 46.1727 23.7172C46.1468 24.9831 45.7722 25.9003 45.0488 26.4686C44.3254 27.0112 43.3308 27.3341 42.0648 27.4375L41.406 27.4762C40.4501 27.4762 39.6492 27.2825 39.0033 26.8949C38.3833 26.4816 37.8407 25.8615 37.3757 25.0348C37.014 24.363 36.6135 23.3813 36.1743 22.0895C35.9676 21.3403 35.7868 20.9657 35.6318 20.9657C35.5284 20.9657 35.438 21.1078 35.3605 21.3919C35.283 21.6503 35.2055 21.9732 35.128 22.3608C34.8438 23.9368 34.4562 25.151 33.9654 26.0036C33.707 26.417 33.2032 26.8045 32.454 27.1662C31.7048 27.5279 30.8651 27.6958 29.935 27.67C28.0232 27.6183 26.6539 27.2179 25.8272 26.4686C25.0262 25.7194 24.6258 24.5568 24.6258 22.9808C24.6258 22.3608 24.6516 21.8699 24.7033 21.5082C24.7291 21.379 24.7808 21.0044 24.8583 20.3844C24.9358 19.7385 24.9746 19.0151 24.9746 18.2142C24.9746 17.5166 24.9358 16.7286 24.8583 15.8502C24.7291 14.5843 24.4708 13.2021 24.0832 11.7036C23.7991 10.4893 23.5795 9.46882 23.4244 8.64209C23.2953 7.78951 23.1919 6.82068 23.1144 5.73558ZM24.3933 5.73558C24.4191 5.91643 24.4708 6.07144 24.5483 6.20062C24.6516 6.30396 24.755 6.35564 24.8583 6.35564C25.0392 6.35564 25.1296 6.1877 25.1296 5.85184C25.1296 5.67099 25.1167 5.5289 25.0908 5.42555C24.9358 4.65049 24.8583 4.03043 24.8583 3.56539C24.8583 2.86783 25.0521 2.38987 25.4396 2.13151C25.8272 1.84732 26.5118 1.66648 27.4935 1.58897C27.7777 1.56313 27.9973 1.51146 28.1524 1.43395C28.3332 1.33061 28.4236 1.24019 28.4236 1.16268C28.4236 1.05934 28.3461 0.994749 28.1911 0.968913C28.0619 0.917241 27.8682 0.904324 27.6098 0.930161C26.4214 1.08517 25.5688 1.42104 25.0521 1.93775C24.5612 2.45446 24.3158 3.25536 24.3158 4.34046C24.3158 4.93468 24.3416 5.39972 24.3933 5.73558ZM39.2746 13.37C39.3521 13.6025 39.4683 13.7188 39.6234 13.7188C39.8042 13.7188 39.8946 13.6025 39.8946 13.37C39.8946 13.215 39.843 13.0471 39.7396 12.8662C39.5071 12.3237 39.3263 11.639 39.1971 10.8123C39.0679 9.9597 39.0421 9.05545 39.1196 8.09954C39.1454 8.04787 39.1583 7.97036 39.1583 7.86702C39.1583 7.712 39.1196 7.59574 39.0421 7.51824C38.9904 7.41489 38.9258 7.36322 38.8483 7.36322C38.7449 7.36322 38.6545 7.42781 38.577 7.55699C38.4995 7.66033 38.4608 7.82826 38.4608 8.06079C38.4608 8.83585 38.5512 9.77885 38.732 10.8898C38.9129 12.0007 39.0937 12.8275 39.2746 13.37ZM32.8028 25.306C33.2161 24.7377 33.5003 24.1822 33.6553 23.6396C33.8104 23.0713 33.9266 22.4383 34.0041 21.7407V21.6632C34.0041 21.5082 33.9783 21.379 33.9266 21.2757C33.9008 21.1465 33.862 21.0819 33.8104 21.0819C33.6553 21.0819 33.5649 21.2886 33.5391 21.702C33.4616 22.322 33.3324 22.8775 33.1515 23.3684C32.9965 23.8593 32.6994 24.3501 32.2602 24.841C32.1052 24.996 32.0277 25.1639 32.0277 25.3448C32.0277 25.5256 32.1181 25.6161 32.299 25.6161C32.454 25.6161 32.6219 25.5127 32.8028 25.306Z" fill="#26434C"/>
<path d="M5.30136 24.3759C3.8804 22.8774 3.16992 21.3014 3.16992 19.648C3.16992 18.7437 3.38952 17.9041 3.82873 17.129C4.26793 16.3539 4.83632 15.7468 5.53388 15.3076C6.25728 14.8425 6.99359 14.61 7.74282 14.61C8.80208 14.61 9.64174 14.7909 10.2618 15.1526C10.8818 15.5143 11.489 16.0051 12.0832 16.6252C12.4191 16.9611 12.6645 17.1936 12.8195 17.3228C13.0004 17.4519 13.2071 17.5165 13.4396 17.5165C13.5946 17.5165 13.7238 17.4778 13.8271 17.4003C13.9304 17.3228 13.9821 17.2194 13.9821 17.0902C13.9821 16.7544 13.6463 16.2893 12.9745 15.6951C12.0703 14.9717 10.6493 13.9383 8.71166 12.5948L7.85908 12.0135C6.36062 10.9801 5.31428 9.92087 4.72006 8.83577C4.15167 7.72484 3.93207 6.69142 4.06125 5.7355C4.29377 3.97868 5.09467 2.58356 6.46396 1.55013C7.85908 0.516711 9.90009 0 12.587 0C14.9897 0 16.9274 0.34878 18.4 1.04634C19.8726 1.7439 20.8673 2.4673 21.384 3.21653C21.8232 3.83658 22.0428 4.55998 22.0428 5.38672C22.0428 6.08428 21.8749 6.74309 21.539 7.36314C21.2032 7.95736 20.7898 8.38365 20.2989 8.642C19.6272 8.95203 19.0588 9.10705 18.5938 9.10705C18.1804 9.10705 17.7541 9.01662 17.3149 8.83577C16.9015 8.65492 16.3073 8.3449 15.5323 7.90569C13.6979 6.87227 12.5999 6.35555 12.2382 6.35555C12.0574 6.35555 11.9669 6.44598 11.9669 6.62683C11.9669 6.83351 12.1607 7.07895 12.5482 7.36314C12.9358 7.64733 13.6075 8.08654 14.5634 8.68076C15.6227 9.32665 16.5657 9.93378 17.3924 10.5022C18.245 11.0705 19.0588 11.7035 19.8339 12.4011C21.4874 13.8737 22.3141 15.9018 22.3141 18.4854C22.3141 19.2346 22.2366 19.9838 22.0816 20.7331C21.694 22.6449 20.7769 24.2596 19.3301 25.5772C17.8833 26.869 15.881 27.5149 13.3233 27.5149C11.799 27.5149 10.3651 27.2953 9.02168 26.8561C7.70407 26.4169 6.46396 25.5902 5.30136 24.3759ZM6.85149 9.06829C7.18736 9.37832 7.52322 9.53333 7.85908 9.53333C8.0916 9.53333 8.20786 9.44291 8.20786 9.26206C8.20786 9.02954 8.00118 8.75826 7.58781 8.44824C6.27019 7.59566 5.61139 6.65266 5.61139 5.61924C5.61139 5.05086 5.80515 4.54706 6.19269 4.10786C6.58022 3.64282 7.10985 3.30695 7.78158 3.10027C8.06577 2.99693 8.28537 2.86775 8.44038 2.71274C8.62123 2.55772 8.71166 2.40271 8.71166 2.24769C8.71166 2.09268 8.5954 2.01518 8.36288 2.01518C8.15619 2.01518 7.92367 2.07976 7.66532 2.20894C6.89025 2.57064 6.27019 3.07443 5.80515 3.72032C5.36595 4.36621 5.14634 5.06378 5.14634 5.81301C5.14634 7.02728 5.71473 8.11237 6.85149 9.06829ZM10.3005 11.5873C10.3522 11.5356 10.3781 11.471 10.3781 11.3935C10.3781 11.1093 10.2101 10.8251 9.87426 10.5409C9.66757 10.3601 9.46089 10.2567 9.2542 10.2309C9.04752 10.1792 8.90542 10.2051 8.82792 10.3084C8.77625 10.3601 8.75041 10.4247 8.75041 10.5022C8.75041 10.7347 8.90542 11.006 9.21545 11.316C9.42214 11.4968 9.62882 11.626 9.8355 11.7035C10.068 11.7552 10.223 11.7164 10.3005 11.5873ZM17.5087 25.6547C19.1363 24.8797 20.1568 23.9367 20.5702 22.8257C20.9836 21.689 21.1515 20.3972 21.074 18.9504C21.074 18.8471 21.0482 18.7566 20.9965 18.6791C20.9448 18.6016 20.8931 18.5629 20.8415 18.5629C20.7898 18.5629 20.7381 18.6145 20.6865 18.7179C20.6348 18.8212 20.6219 18.9504 20.6477 19.1054C20.7252 20.3714 20.4927 21.5598 19.9501 22.6707C19.4076 23.7558 18.4 24.5051 16.9274 24.9184C16.6949 24.9959 16.5786 25.1122 16.5786 25.2672C16.5786 25.3705 16.6432 25.4739 16.7724 25.5772C16.9015 25.6806 17.0436 25.7322 17.1987 25.7322L17.5087 25.6547Z" fill="#26434C"/>
<path d="M84.314 49.6841C84.3915 47.5139 84.624 45.2792 85.0115 42.9798C85.2182 41.533 85.3603 40.3962 85.4378 39.5695C85.4637 39.3886 85.4766 39.1045 85.4766 38.7169C85.4766 37.8385 85.3603 36.7534 85.1278 35.4616C84.9211 34.0665 84.8178 33.0589 84.8178 32.4389C84.8178 31.0438 85.1278 29.9587 85.7479 29.1836C86.3937 28.3827 87.4788 27.9822 89.0031 27.9822C90.6566 27.9822 91.858 28.331 92.6072 29.0286C93.3564 29.7003 93.6665 30.9404 93.5373 32.7489C93.4856 33.524 93.4598 34.0278 93.4598 34.2603C93.4598 35.3712 93.576 36.1075 93.8086 36.4692C94.0411 36.8051 94.3124 36.973 94.6224 36.973C94.9066 36.973 95.1262 36.8051 95.2812 36.4692C95.4362 36.1075 95.5137 35.41 95.5137 34.3765L95.475 33.4465C95.4233 32.8264 95.3975 32.3355 95.3975 31.9738C95.3975 30.5012 95.7592 29.4807 96.4825 28.9123C97.2318 28.3439 98.3556 28.0339 99.8541 27.9822C101.327 27.9306 102.334 28.3052 102.877 29.1061C103.419 29.907 103.704 31.0308 103.729 32.4776C103.729 33.0977 103.626 34.0794 103.419 35.4229C103.213 36.8697 103.109 37.9548 103.109 38.6782C103.109 39.0657 103.122 39.3628 103.148 39.5695C103.277 40.7321 103.471 41.9722 103.729 43.2898C103.962 44.5041 104.143 45.5634 104.272 46.4676C104.401 47.346 104.492 48.3536 104.543 49.4904C104.698 53.314 103.2 55.2259 100.048 55.2259C98.3427 55.2259 97.1284 54.7479 96.405 53.792C95.7075 52.8361 95.3587 51.6218 95.3587 50.1492C95.3587 49.1416 95.4362 47.9661 95.5912 46.6226C95.6946 45.4859 95.7462 44.6979 95.7462 44.2587C95.7462 43.7936 95.6558 43.4707 95.475 43.2898C95.3199 43.109 95.0616 43.0186 94.6999 43.0186C93.899 43.0186 93.576 43.4578 93.7311 44.3362L93.9636 45.5763C94.2219 47.1006 94.3769 48.4053 94.4286 49.4904C94.4803 50.4721 94.2865 51.4022 93.8473 52.2806C93.4339 53.159 92.8139 53.8695 91.9872 54.412C91.1604 54.9546 90.2045 55.2259 89.1194 55.2259C87.3109 55.2259 86.032 54.6962 85.2828 53.637C84.5594 52.5777 84.2365 51.2601 84.314 49.6841ZM85.8254 33.679C85.8254 33.8598 85.8641 34.0148 85.9416 34.144C86.045 34.2474 86.1612 34.299 86.2904 34.299C86.4454 34.299 86.5617 34.2215 86.6392 34.0665C86.7167 33.8857 86.7296 33.6531 86.6779 33.369C86.4971 32.3355 86.4067 31.6251 86.4067 31.2375C86.4067 30.7208 86.5229 30.3591 86.7555 30.1524C86.988 29.9457 87.3755 29.8424 87.9181 29.8424C88.2797 29.8424 88.5769 29.8553 88.8094 29.8812H89.0807C89.3648 29.8812 89.5844 29.8424 89.7395 29.7649C89.9203 29.6615 90.0107 29.5453 90.0107 29.4161C90.0107 29.2869 89.9074 29.1836 89.7007 29.1061C89.5199 29.0027 89.2744 28.964 88.9644 28.9898C87.6984 29.0932 86.8459 29.4032 86.4067 29.9199C85.9933 30.4108 85.7866 31.2763 85.7866 32.5164C85.7866 33.0073 85.7995 33.3948 85.8254 33.679ZM96.5988 33.679C96.5988 33.8598 96.6376 34.0148 96.7151 34.144C96.8184 34.2474 96.9347 34.299 97.0638 34.299C97.2189 34.299 97.3351 34.2215 97.4126 34.0665C97.4901 33.8857 97.5031 33.6531 97.4514 33.369C97.2705 32.3355 97.1801 31.6251 97.1801 31.2375C97.1801 30.7208 97.2964 30.3591 97.5289 30.1524C97.7614 29.9457 98.1489 29.8424 98.6915 29.8424C99.0532 29.8424 99.3503 29.8553 99.5828 29.8812H99.8541C100.138 29.8812 100.358 29.8424 100.513 29.7649C100.694 29.6615 100.784 29.5453 100.784 29.4161C100.784 29.2869 100.681 29.1836 100.474 29.1061C100.293 29.0027 100.048 28.964 99.7378 28.9898C98.4719 29.0932 97.6193 29.4032 97.1801 29.9199C96.7667 30.4108 96.5601 31.2763 96.5601 32.5164C96.5601 33.0073 96.573 33.3948 96.5988 33.679ZM102.102 53.2882C103.109 52.4356 103.613 51.2084 103.613 49.6066C103.613 49.0641 103.549 48.4957 103.419 47.9015C103.316 47.2814 103.213 46.7518 103.109 46.3126C103.058 46.0542 102.967 45.8475 102.838 45.6925C102.709 45.5117 102.593 45.4213 102.489 45.4213C102.36 45.4213 102.296 45.5375 102.296 45.77C102.296 45.9509 102.347 46.1834 102.451 46.4676C102.683 47.2168 102.851 47.824 102.954 48.289C103.058 48.7541 103.109 49.2062 103.109 49.6454C103.109 50.9113 102.541 51.8931 101.404 52.5906C101.068 52.8232 100.9 53.0298 100.9 53.2107C100.9 53.469 101.068 53.5982 101.404 53.5982C101.663 53.5982 101.895 53.4949 102.102 53.2882Z" fill="#26434C"/>
<path d="M73.2553 55.3034C71.2659 55.0192 69.5608 54.2183 68.1398 52.9007C66.7189 51.5831 65.6467 49.9554 64.9233 48.0177C64.2257 46.0542 63.877 43.9874 63.877 41.8172C63.877 39.4403 64.3032 37.2055 65.1558 35.1129C66.0342 32.9943 67.326 31.2892 69.0311 29.9974C70.7363 28.6798 72.8032 28.021 75.2317 28.021C77.2985 28.021 78.9649 28.6023 80.2309 29.7649C81.5227 30.9275 82.3752 32.3485 82.7886 34.0278C82.9953 34.9062 83.0986 35.7329 83.0986 36.508C83.0986 37.9289 82.8274 39.1949 82.2848 40.3058C81.7423 41.3909 80.9414 42.1014 79.8821 42.4373C79.1845 42.6439 78.5903 42.7473 78.0994 42.7473C76.4201 42.7473 75.2446 41.7397 74.5729 39.7245C74.4437 39.337 74.3791 38.859 74.3791 38.2906C74.3791 37.8514 74.405 37.4122 74.4566 36.973C74.5341 36.508 74.5858 36.2109 74.6116 36.0817C74.6633 35.72 74.7667 35.3066 74.9217 34.8416C74.9475 34.7641 74.9863 34.6349 75.0379 34.4541C75.0896 34.2474 75.1025 34.1053 75.0767 34.0278C75.0767 33.9503 75.0379 33.9115 74.9604 33.9115C74.7796 33.9115 74.5729 34.1311 74.3404 34.5703C74.1078 35.0095 73.9012 35.5779 73.7203 36.2755C73.5653 36.973 73.4878 37.7093 73.4878 38.4844C73.4878 38.9495 73.5265 39.4145 73.6041 39.8795C73.8107 41.1196 74.2758 42.2047 74.9992 43.1348C75.7484 44.0649 76.7302 44.5299 77.9444 44.5299C78.3578 44.5299 78.6678 44.5041 78.8745 44.4524C79.0812 44.4008 79.3783 44.3749 79.7658 44.3749C80.8509 44.3749 81.6777 44.7625 82.2461 45.5375C82.8403 46.3126 83.1374 47.2814 83.1374 48.444C83.1374 49.2708 82.9824 50.0975 82.6723 50.9243C82.3623 51.751 81.9231 52.4873 81.3547 53.1332C79.9079 54.6833 77.8798 55.4584 75.2704 55.4584C74.8054 55.4584 74.1337 55.4067 73.2553 55.3034ZM65.3496 38.9495C65.3496 39.1561 65.3883 39.3112 65.4658 39.4145C65.5434 39.5178 65.6338 39.5695 65.7371 39.5695C65.8921 39.5695 66.0342 39.492 66.1634 39.337C66.2926 39.1561 66.3572 38.9365 66.3572 38.6782C66.3572 34.7512 68.0752 31.9351 71.5114 30.2299C71.8731 30.0233 72.0539 29.8424 72.0539 29.6874C72.0539 29.5582 71.9635 29.4936 71.7826 29.4936C71.6793 29.4936 71.4726 29.5582 71.1626 29.6874C69.5866 30.4883 68.2432 31.7026 67.1322 33.3302C66.0471 34.932 65.4529 36.7922 65.3496 38.9107V38.9495ZM65.9309 42.2822C66.0601 42.2822 66.1763 42.1918 66.2797 42.011C66.383 41.8043 66.4347 41.5588 66.4347 41.2747C66.4347 41.0163 66.383 40.7967 66.2797 40.6158C66.1763 40.4092 66.0601 40.3058 65.9309 40.3058C65.8017 40.3058 65.6854 40.4092 65.5821 40.6158C65.4788 40.7967 65.4271 41.0163 65.4271 41.2747C65.4271 41.5588 65.4788 41.8043 65.5821 42.011C65.6854 42.1918 65.8017 42.2822 65.9309 42.2822ZM82.1298 49.3741C82.2073 49.0641 82.2461 48.7153 82.2461 48.3278C82.2461 47.4752 82.0135 46.7776 81.5485 46.2351C81.1093 45.6667 80.3859 45.4213 79.3783 45.4988C79.1458 45.5246 78.9649 45.5892 78.8358 45.6925C78.7066 45.77 78.642 45.8605 78.642 45.9638C78.642 46.1705 78.8616 46.2351 79.3008 46.1576C79.4558 46.1317 79.6496 46.1188 79.8821 46.1188C80.993 46.1188 81.5485 46.6097 81.5485 47.5915C81.5485 48.0048 81.4064 48.5861 81.1222 49.3354C81.0964 49.387 81.0835 49.4645 81.0835 49.5679C81.0835 49.6712 81.1222 49.7746 81.1997 49.8779C81.3031 49.9554 81.4193 49.9942 81.5485 49.9942C81.6777 49.9942 81.7939 49.9425 81.8973 49.8392C82.0265 49.7358 82.104 49.5808 82.1298 49.3741Z" fill="#26434C"/>
<path d="M46.0146 30.6565C46.0405 29.8815 46.2472 29.3131 46.6347 28.9514C47.0481 28.5897 47.6423 28.3572 48.4174 28.2538C49.1924 28.1246 50.3034 28.0601 51.7501 28.0601H58.7645C60.0305 28.0601 61.0251 28.2797 61.7485 28.7189C62.4978 29.1322 62.8853 29.7781 62.9111 30.6565C63.0145 33.4468 63.0661 35.5653 63.0661 37.0121C63.0661 37.9422 62.9111 38.7043 62.6011 39.2985C62.2911 39.8669 61.9035 40.164 61.4385 40.1899C60.4567 40.2415 59.8109 40.0349 59.5008 39.5698C59.2166 39.1048 59.0745 38.2651 59.0745 37.0508C59.0745 36.7667 59.1004 36.3662 59.152 35.8495L59.1908 34.7644C59.1908 34.196 59.0745 33.9118 58.842 33.9118C58.4287 33.9118 58.222 34.4544 58.222 35.5395C58.222 36.0303 58.3253 37.18 58.532 38.9885C58.6612 40.1511 58.8808 41.3266 59.1908 42.5151C59.5267 43.7035 59.7204 44.3882 59.7721 44.569C60.108 45.7574 60.3534 46.7392 60.5084 47.5143C60.6893 48.2635 60.7797 48.9481 60.7797 49.5682C60.7797 50.5499 60.5472 51.4929 60.0821 52.3972C59.6429 53.3014 58.997 54.0378 58.1445 54.6061C57.3177 55.1745 56.336 55.4587 55.1992 55.4587C53.1324 55.4587 51.6081 54.9162 50.6263 53.8311C49.6445 52.7201 49.1537 51.4025 49.1537 49.8782C49.1537 48.819 49.3862 47.2947 49.8512 45.3053C50.3938 42.9543 50.7296 40.9649 50.8588 39.3373C51.0138 37.5288 51.0913 36.3533 51.0913 35.8107C51.0913 34.5448 50.9105 33.9118 50.5488 33.9118C50.2646 33.9118 50.1225 34.1702 50.1225 34.6869C50.1225 34.9194 50.1483 35.2553 50.2 35.6945C50.2775 36.1078 50.3292 36.4308 50.355 36.6633C50.4067 37.18 50.4325 37.5546 50.4325 37.7872C50.4325 39.3373 49.7866 40.1124 48.4949 40.1124C46.8414 40.1124 46.0146 39.0919 46.0146 37.0508V32.4392V30.6565ZM46.906 33.4855C46.9318 33.6664 46.9835 33.8214 47.061 33.9506C47.1643 34.0539 47.2806 34.1056 47.4098 34.1056C47.5389 34.1056 47.6423 34.0281 47.7198 33.8731C47.7973 33.6922 47.8102 33.4597 47.7585 33.1755C47.5777 32.0387 47.4873 31.2766 47.4873 30.8891C47.4873 30.3465 47.5906 29.9719 47.7973 29.7652C48.0298 29.5327 48.4303 29.4164 48.9987 29.4164C49.1537 29.4164 49.4895 29.4423 50.0062 29.4939C50.1096 29.5198 50.2517 29.5327 50.4325 29.5327C50.6651 29.5327 50.8459 29.5069 50.9751 29.4552C51.1301 29.3777 51.2076 29.3002 51.2076 29.2227C51.2076 29.1193 51.0913 29.0289 50.8588 28.9514C50.6263 28.848 50.3163 28.7964 49.9287 28.7964C48.792 28.7964 47.9911 29.016 47.526 29.4552C47.061 29.8944 46.8285 30.734 46.8285 31.9742C46.8285 32.2583 46.8543 32.7621 46.906 33.4855ZM59.4233 48.6769C59.5008 47.8501 59.4104 46.9588 59.152 46.0029C58.8937 45.0211 58.5578 43.9102 58.1445 42.6701C57.9894 42.2567 57.8344 42.05 57.6794 42.05C57.6019 42.05 57.5632 42.1405 57.5632 42.3213C57.5632 42.4247 57.6019 42.5797 57.6794 42.7863C58.3511 44.6207 58.687 46.1837 58.687 47.4755C58.687 47.863 58.6741 48.1472 58.6483 48.3281L58.6095 48.5994C58.6095 48.806 58.6483 48.974 58.7258 49.1032C58.8033 49.2065 58.9066 49.2582 59.0358 49.2582C59.1133 49.2582 59.1908 49.2065 59.2683 49.1032C59.3458 48.9998 59.3975 48.8577 59.4233 48.6769Z" fill="#26434C"/>
<path d="M25.3135 50.2656C25.3135 49.1547 25.3781 48.16 25.5072 47.2816C25.6623 46.4032 25.8819 45.4214 26.1661 44.3363C26.4244 43.3029 26.6053 42.4503 26.7086 41.7786C26.8119 41.081 26.8378 40.3447 26.7861 39.5697C26.6569 37.8903 26.5923 36.4694 26.5923 35.3068C26.5923 33.1883 26.8249 31.6769 27.2899 30.7726C27.8841 29.61 28.84 28.8091 30.1577 28.3699C31.5011 27.9049 33.2192 27.6724 35.3119 27.6724C37.4045 27.6724 39.1743 27.8661 40.6211 28.2537C42.0679 28.6412 43.0625 29.4292 43.6051 30.6176C44.1735 31.8836 44.4577 33.4725 44.4577 35.3843C44.4577 36.056 44.4189 36.7665 44.3414 37.5157C44.3414 37.7999 44.3156 38.2262 44.2639 38.7946C44.2381 39.3371 44.2251 39.8409 44.2251 40.306C44.2251 40.926 44.2768 41.5202 44.3801 42.0886C44.4835 42.657 44.6385 43.4192 44.8452 44.3751C45.1035 45.6152 45.2973 46.6357 45.4265 47.4366C45.5557 48.2117 45.6203 49.1159 45.6203 50.1493C45.6203 51.6478 45.3102 52.8491 44.6902 53.7534C44.0701 54.6576 42.9204 55.2002 41.2411 55.381C41.0344 55.4069 40.7373 55.4198 40.3498 55.4198C38.748 55.4198 37.5725 54.9418 36.8232 53.9859C36.074 53.0042 35.6994 51.7899 35.6994 50.3431C35.6994 49.9039 35.7123 49.5809 35.7381 49.3743C36.0223 46.7649 36.1644 45.1631 36.1644 44.5688C36.1644 43.6646 35.9836 43.2125 35.6219 43.2125C35.3119 43.2125 35.0922 43.3933 34.9631 43.755C34.8597 44.1167 34.8081 44.6722 34.8081 45.4214C34.8081 45.7573 34.8339 46.3903 34.8856 47.3203C34.9631 49.0255 35.0018 49.9685 35.0018 50.1493C35.0018 53.6371 33.3225 55.381 29.9639 55.381C28.2071 55.381 26.9928 54.9031 26.3211 53.9472C25.6493 52.9912 25.3135 51.7641 25.3135 50.2656ZM27.7937 34.1442C27.7937 34.325 27.8324 34.4671 27.91 34.5705C28.0133 34.6738 28.1425 34.7255 28.2975 34.7255C28.4783 34.7255 28.6204 34.648 28.7238 34.493C28.853 34.3121 28.9046 34.0796 28.8788 33.7954C28.8271 33.072 28.8013 32.6199 28.8013 32.439C28.8013 31.5606 28.9563 30.9793 29.2663 30.6951C29.5764 30.3851 30.1964 30.2043 31.1265 30.1526C31.359 30.1267 31.5528 30.0492 31.7078 29.9201C31.8886 29.7909 31.9791 29.6488 31.9791 29.4938C31.9791 29.3646 31.9145 29.2613 31.7853 29.1837C31.6561 29.1062 31.4623 29.0804 31.204 29.1062C30.2222 29.2096 29.4084 29.6746 28.7625 30.5014C28.1166 31.3281 27.7937 32.5424 27.7937 34.1442ZM35.3894 37.6707C35.6736 37.6707 35.8932 37.5028 36.0482 37.1669C36.229 36.8311 36.3194 36.4306 36.3194 35.9656C36.3194 35.423 36.229 34.9451 36.0482 34.5317C35.8673 34.1183 35.6348 33.9117 35.3506 33.9117C35.0406 33.9117 34.7951 34.0925 34.6143 34.4542C34.4593 34.7901 34.3818 35.2164 34.3818 35.7331C34.3818 36.2498 34.4722 36.7019 34.653 37.0894C34.8339 37.477 35.0793 37.6707 35.3894 37.6707ZM43.1013 53.4046C44.0572 52.6554 44.5352 51.5574 44.5352 50.1106C44.5352 49.2838 44.3672 48.3796 44.0314 47.3978C43.9022 47.0103 43.7343 46.8165 43.5276 46.8165C43.4501 46.8165 43.3726 46.8682 43.2951 46.9715C43.2434 47.0749 43.2175 47.2041 43.2175 47.3591C43.2175 47.4108 43.2434 47.5399 43.2951 47.7466C43.6567 48.8317 43.8376 49.7101 43.8376 50.3818C43.8376 51.4669 43.4501 52.242 42.675 52.7071C42.3133 52.9137 42.1324 53.1204 42.1324 53.3271C42.1324 53.5338 42.2616 53.6371 42.52 53.6371C42.7267 53.6371 42.9204 53.5596 43.1013 53.4046Z" fill="#26434C"/>
<path d="M0.562323 49.6843C0.613994 48.3667 0.691501 47.2299 0.794843 46.274C0.924021 45.2923 1.09195 44.1167 1.29864 42.7475C1.50532 41.404 1.64742 40.3448 1.72492 39.5697C1.75076 39.3888 1.76368 39.1176 1.76368 38.7559C1.76368 38.1358 1.71201 37.477 1.60866 36.7794C1.50532 36.056 1.44073 35.6168 1.4149 35.4618C1.18238 34.1959 1.06612 33.2012 1.06612 32.4778C1.06612 29.4809 2.44832 27.9824 5.21273 27.9824C6.22032 27.9824 7.05998 28.1116 7.7317 28.37C8.42926 28.6283 9.04932 29.145 9.59186 29.9201C10.1344 30.6952 10.5865 31.8448 10.9482 33.3691C11.1291 34.1442 11.3099 34.7384 11.4908 35.1518C11.6716 35.5393 11.9042 35.7202 12.1883 35.6943C12.395 35.6685 12.5888 35.436 12.7696 34.9968C12.9505 34.5317 13.183 33.8729 13.4672 33.0204C14.0614 31.186 14.8236 29.8943 15.7537 29.145C16.6837 28.37 17.8593 27.9824 19.2802 27.9824C20.6495 27.9824 21.5925 28.3829 22.1092 29.1838C22.6259 29.9588 22.8972 31.0569 22.923 32.4778C22.923 33.0204 22.9101 33.5112 22.8843 33.9504C22.8584 34.3896 22.8326 34.7772 22.8068 35.113C22.7034 36.4048 22.6518 37.3866 22.6518 38.0583C22.6518 38.3942 22.6776 38.898 22.7293 39.5697C22.8068 40.2156 22.8714 40.7969 22.923 41.3136C23.0005 41.8303 23.0651 42.2953 23.1168 42.7087C23.4785 45.3439 23.6981 47.6046 23.7756 49.4906C23.8531 51.0924 23.5043 52.4487 22.7293 53.5597C21.98 54.6448 20.7787 55.2002 19.1252 55.2261C17.6009 55.2519 16.3995 55.1356 15.5211 54.8773C14.6686 54.6189 14.0356 54.1539 13.6222 53.4821C13.2347 52.7846 13.0926 51.7899 13.1959 50.4981C13.4284 47.9921 13.9452 45.3956 14.7461 42.7087C14.9011 42.2178 15.0044 41.7915 15.0561 41.4298C15.1336 41.0682 15.1336 40.8615 15.0561 40.8098C15.0303 40.784 14.9915 40.7581 14.9398 40.7323C14.914 40.7065 14.8752 40.6935 14.8236 40.6935C14.6686 40.6935 14.5394 41.0165 14.436 41.6624C13.9968 44.0909 13.4543 45.3052 12.8084 45.3052C12.3175 45.3052 11.8912 45.0468 11.5295 44.5301C11.1678 43.9876 10.7932 43.1608 10.4057 42.0499C10.2765 41.6882 10.1344 41.4298 9.9794 41.2748C9.82438 41.1198 9.66937 41.094 9.51436 41.1973C9.48852 41.2232 9.57895 41.5332 9.78563 42.1274C10.2248 43.2383 10.6124 44.4009 10.9482 45.6152C11.3099 46.8295 11.5425 48.1729 11.6458 49.6456C11.775 51.3766 11.4004 52.7458 10.5219 53.7534C9.66937 54.761 8.28717 55.2648 6.37533 55.2648C2.34498 55.2648 0.407309 53.4046 0.562323 49.6843ZM2.26747 33.4854C2.26747 33.6663 2.30623 33.8213 2.38373 33.9504C2.48707 34.0538 2.60333 34.1055 2.73251 34.1055C2.88753 34.1055 3.00379 34.028 3.08129 33.8729C3.1588 33.6921 3.17172 33.4596 3.12005 33.1754C2.9392 32.142 2.84877 31.4315 2.84877 31.0439C2.84877 30.5272 2.96503 30.1655 3.19755 29.9588C3.43007 29.7522 3.81761 29.6488 4.36016 29.6488C4.72185 29.6488 5.01896 29.6617 5.25148 29.6876H5.52276C5.80695 29.6876 6.02655 29.6488 6.18156 29.5713C6.36241 29.468 6.45284 29.3517 6.45284 29.2225C6.45284 29.0933 6.3495 28.99 6.14281 28.9125C5.96196 28.8092 5.71652 28.7704 5.4065 28.7962C4.14055 28.8996 3.28798 29.2096 2.84877 29.7263C2.4354 30.2172 2.22872 31.0827 2.22872 32.3228C2.22872 32.8137 2.24164 33.2012 2.26747 33.4854ZM14.4748 33.4854C14.4748 33.6146 14.5006 33.7179 14.5523 33.7954C14.6298 33.8729 14.7202 33.9117 14.8236 33.9117C14.9527 33.9117 15.0819 33.8471 15.2111 33.7179C15.3403 33.5887 15.4178 33.395 15.4436 33.1366C15.6503 31.7673 16.0508 30.7985 16.645 30.2301C17.2392 29.6359 18.0789 29.3646 19.1639 29.4163H19.2415C19.4481 29.4163 19.6032 29.3905 19.7065 29.3388C19.8357 29.2613 19.9003 29.1838 19.9003 29.1063C19.9003 29.0288 19.8357 28.9642 19.7065 28.9125C19.6032 28.8608 19.4223 28.835 19.1639 28.835C17.898 28.835 16.8904 29.2096 16.1412 29.9588C15.392 30.7081 14.8494 31.819 14.5135 33.2916L14.4748 33.4854ZM21.6054 53.0559C22.4838 51.9708 22.923 50.4723 22.923 48.5605C22.923 47.8371 22.8584 47.1266 22.7293 46.429C22.6259 45.7056 22.4967 45.1114 22.3417 44.6464C22.2642 44.388 22.1609 44.2588 22.0317 44.2588C21.9542 44.2588 21.9154 44.3364 21.9154 44.4914C21.9154 44.6205 21.9284 44.7239 21.9542 44.8014C22.0317 45.0081 22.0963 45.3956 22.148 45.964C22.2255 46.5065 22.2642 47.0878 22.2642 47.7079C22.2642 49.8006 21.825 51.4024 20.9466 52.5133C20.8433 52.6167 20.7916 52.7458 20.7916 52.9009C20.7916 53.03 20.8174 53.1334 20.8691 53.2109C20.9466 53.2884 21.037 53.3271 21.1404 53.3271C21.2954 53.3271 21.4504 53.2367 21.6054 53.0559Z" fill="#26434C"/>
</svg>
